<svg width="19" height="20" viewBox="0 0 19 20" fill="none" xmlns="http://www.w3.org/2000/svg">
<path d="M18.6306 7.41256C18.5729 7.24274 18.4668 7.09353 18.3253 6.98335C18.1838 6.87316 18.0132 6.80681 17.8344 6.79251L12.6053 6.377L10.3424 1.36798C10.2704 1.20665 10.1532 1.06963 10.0049 0.973442C9.85672 0.877257 9.68383 0.826025 9.50714 0.825928C9.33044 0.825831 9.1575 0.876874 9.00917 0.972896C8.86084 1.06892 8.74348 1.20582 8.67124 1.36707L6.40842 6.377L1.17927 6.79251C1.00358 6.80642 0.835617 6.87066 0.695479 6.97754C0.555341 7.08442 0.448961 7.2294 0.389066 7.39516C0.329171 7.56091 0.318296 7.74041 0.357744 7.91218C0.397192 8.08395 0.485291 8.24072 0.611502 8.36373L4.47581 12.1308L3.10913 18.0488C3.06763 18.2279 3.08093 18.4154 3.1473 18.5869C3.21368 18.7584 3.33006 18.9059 3.48135 19.0105C3.63263 19.115 3.81184 19.1716 3.99571 19.173C4.17959 19.1744 4.35964 19.1205 4.5125 19.0183L9.50684 15.6888L14.5012 19.0183C14.6574 19.1221 14.8417 19.1755 15.0292 19.1713C15.2167 19.1672 15.3984 19.1058 15.5499 18.9953C15.7015 18.8848 15.8156 18.7306 15.8768 18.5533C15.9381 18.3761 15.9436 18.1843 15.8926 18.0039L14.215 12.1336L18.3756 8.38941C18.648 8.14359 18.748 7.76019 18.6306 7.41256Z" fill="#F3CD03"/>
</svg>
