<svg width="32" height="27" viewBox="0 0 32 27" fill="none" xmlns="http://www.w3.org/2000/svg">
<g clip-path="url(#clip0_965_46)">
<g clip-path="url(#clip1_965_46)">
<path d="M19.9277 6.74951H27.9263V9.04639H19.9277V6.74951Z" fill="#FFA62B"/>
<path d="M19.9277 12.4917H27.9263V14.7886H19.9277V12.4917Z" fill="#FFA62B"/>
<path d="M19.9277 18.2339H27.9263V20.5308H19.9277V18.2339Z" fill="#FFA62B"/>
<path d="M30.2119 1.00732H2.78824C2.18232 1.00793 1.6014 1.25012 1.17295 1.68074C0.744502 2.11135 0.503535 2.69522 0.50293 3.3042V23.9761C0.503535 24.5851 0.744502 25.169 1.17295 25.5996C1.6014 26.0302 2.18232 26.2724 2.78824 26.273H30.2119C30.8177 26.2721 31.3985 26.0298 31.8269 25.5992C32.2553 25.1687 32.4963 24.585 32.4972 23.9761V3.3042C32.4966 2.69522 32.2557 2.11135 31.8272 1.68074C31.3988 1.25012 30.8178 1.00793 30.2119 1.00732ZM2.78824 3.3042H15.3574V23.9761H2.78824V3.3042ZM17.6427 23.9761V3.3042H30.2119L30.2142 23.9761H17.6427Z" fill="#FFA62B"/>
</g>
</g>
<defs>
<clipPath id="clip0_965_46">
<rect width="32" height="26.353" fill="white"/>
</clipPath>
<clipPath id="clip1_965_46">
<rect width="32" height="25.28" fill="white" transform="translate(0.5 1)"/>
</clipPath>
</defs>
</svg>
