<svg width="32" height="27" viewBox="0 0 32 27" fill="none" xmlns="http://www.w3.org/2000/svg">
<g clip-path="url(#clip0_965_16)">
<g clip-path="url(#clip1_965_16)">
<path d="M15.9039 12.7044C18.5044 12.7044 20.5269 10.5697 20.5269 7.94993C20.5269 5.33011 18.408 3.29248 15.8076 3.29248C13.2071 3.29248 11.1846 5.42715 11.1846 7.94993C11.1846 10.5697 13.3035 12.7044 15.9039 12.7044ZM15.8076 5.23309C15.9039 5.23309 15.9039 5.23309 15.8076 5.23309C17.3486 5.23309 18.6007 6.49448 18.6007 8.04696C18.6007 9.59945 17.3486 10.7638 15.8076 10.7638C14.2666 10.7638 13.1108 9.50242 13.1108 8.04696C13.1108 6.49448 14.3629 5.23309 15.8076 5.23309Z" fill="#FFA62B"/>
<path d="M30.158 12.122C28.3281 10.4725 25.9203 9.59924 23.4161 9.69627H22.6456C22.453 10.4725 22.1641 11.1517 21.7788 11.7339C22.3567 11.6369 22.8383 11.6369 23.4161 11.6369C25.2461 11.5398 27.076 12.122 28.5207 13.1894V20.1755H30.447V12.4131L30.158 12.122Z" fill="#FFA62B"/>
<path d="M21.2009 3.4859C21.6825 2.32154 23.0309 1.73936 24.2829 2.22451C25.4387 2.70966 26.0166 4.06808 25.535 5.32947C25.1498 6.20275 24.2829 6.78493 23.4161 6.78493C23.2235 6.78493 22.9346 6.78493 22.7419 6.6879C22.8382 7.17305 22.8382 7.6582 22.8382 8.04632V8.6285C23.0309 8.6285 23.2235 8.72553 23.4161 8.72553C25.8239 8.72553 27.7502 6.78493 27.7502 4.4562C27.7502 2.03045 25.8239 0.0898438 23.5124 0.0898438C21.9714 0.0898438 20.623 0.866085 19.8525 2.22451C20.3341 2.5156 20.8157 2.90372 21.2009 3.4859Z" fill="#FFA62B"/>
<path d="M10.2214 11.8306C9.83614 11.2484 9.5472 10.5692 9.35457 9.79296H8.58407C6.07993 9.69593 3.67211 10.5692 1.84216 12.1217L1.55322 12.4128V20.1752H3.47948V13.189C5.02049 12.1217 6.75412 11.5395 8.58407 11.6365C9.16195 11.6365 9.73982 11.7336 10.2214 11.8306Z" fill="#FFA62B"/>
<path d="M8.58371 8.62915C8.77634 8.62915 8.96896 8.62915 9.16159 8.53212V7.94994C9.16159 7.46479 9.16159 6.97963 9.2579 6.59151C9.06528 6.68854 8.77634 6.68854 8.58371 6.68854C7.33165 6.68854 6.2722 5.62121 6.2722 4.35982C6.2722 3.09843 7.33165 2.03109 8.58371 2.03109C9.54684 2.03109 10.4137 2.61327 10.7989 3.48655C11.1842 3.0014 11.762 2.51624 12.2436 2.12812C10.9915 0.0904882 8.39109 -0.588723 6.36852 0.67267C4.34595 1.93406 3.67176 4.55388 4.92382 6.59151C5.69433 7.85291 7.04271 8.62915 8.58371 8.62915Z" fill="#FFA62B"/>
<path d="M23.8013 17.9435L23.6087 17.6524C21.6824 15.5177 18.9857 14.2563 16.0963 14.3534C13.2069 14.2563 10.4138 15.5177 8.48755 17.6524L8.29492 17.9435V25.3178C8.29492 26.1911 8.96911 26.9673 9.93224 26.9673H22.2603C23.1271 26.9673 23.8976 26.1911 23.8976 25.3178V17.9435H23.8013ZM21.875 25.0267H10.2212V18.6227C11.7622 17.0702 13.8811 16.294 16.0963 16.294C18.2152 16.1969 20.334 17.0702 21.875 18.6227V25.0267Z" fill="#FFA62B"/>
</g>
</g>
<defs>
<clipPath id="clip0_965_16">
<rect width="32" height="26.353" fill="white"/>
</clipPath>
<clipPath id="clip1_965_16">
<rect width="29" height="27" fill="white" transform="translate(1.5)"/>
</clipPath>
</defs>
</svg>
